<mxfile host="app.diagrams.net" modified="2023-06-10T08:17:17.967Z" agent="Mozilla/5.0 (Windows NT 10.0; Win64; x64) AppleWebKit/537.36 (KHTML, like Gecko) Chrome/114.0.0.0 Safari/537.36" version="21.3.7" etag="bSCv9z_ix5wsPmRQmfCw" type="github">
  <diagram name="페이지-1" id="4jSbOJrcjffxicGDQ6Wx">
    <mxGraphModel>
      <root>
        <mxCell id="0" />
        <mxCell id="1" parent="0" />
      </root>
    </mxGraphModel>
  </diagram>
</mxfile>
